<svg width="18" height="12" viewBox="0 0 18 12" fill="none" xmlns="http://www.w3.org/2000/svg">
<path d="M17 4.99999H3.83005L6.71005 2.11999C6.89702 1.93301 7.00207 1.67942 7.00207 1.41499C7.00207 1.15056 6.89702 0.896967 6.71005 0.70999C6.52307 0.523012 6.26947 0.417969 6.00505 0.417969C5.74062 0.417969 5.48702 0.523012 5.30005 0.70999L0.710047 5.29999C0.617343 5.3925 0.543795 5.50239 0.493614 5.62337C0.443432 5.74434 0.417603 5.87402 0.417603 6.00499C0.417603 6.13596 0.443432 6.26564 0.493614 6.38661C0.543795 6.50759 0.617343 6.61748 0.710047 6.70999L5.30005 11.3C5.39263 11.3926 5.50254 11.466 5.6235 11.5161C5.74447 11.5662 5.87412 11.592 6.00505 11.592C6.13598 11.592 6.26563 11.5662 6.38659 11.5161C6.50755 11.466 6.61747 11.3926 6.71005 11.3C6.80263 11.2074 6.87607 11.0975 6.92617 10.9765C6.97628 10.8556 7.00207 10.7259 7.00207 10.595C7.00207 10.4641 6.97628 10.3344 6.92617 10.2134C6.87607 10.0925 6.80263 9.98257 6.71005 9.88999L3.83005 6.99999H17C17.55 6.99999 18 6.54999 18 5.99999C18 5.44999 17.55 4.99999 17 4.99999Z" fill="#8C849E"/>
</svg>
