<svg width="52" height="52" viewBox="0 0 52 52" fill="none" xmlns="http://www.w3.org/2000/svg">
<rect x="0.5" y="0.5" width="51" height="51" rx="25.5" fill="#7845F5"/>
<path d="M29.5 28H28.71L28.43 27.73C29.4439 26.554 30.0011 25.0527 30 23.5C30 22.2144 29.6188 20.9577 28.9046 19.8888C28.1903 18.8199 27.1752 17.9868 25.9874 17.4948C24.7997 17.0028 23.4928 16.8741 22.2319 17.1249C20.971 17.3757 19.8128 17.9948 18.9038 18.9038C17.9948 19.8128 17.3757 20.971 17.1249 22.2319C16.8741 23.4928 17.0028 24.7997 17.4948 25.9874C17.9868 27.1752 18.8199 28.1903 19.8888 28.9046C20.9577 29.6188 22.2144 30 23.5 30C25.11 30 26.59 29.41 27.73 28.43L28 28.71V29.5L33 34.49L34.49 33L29.5 28ZM23.5 28C21.01 28 19 25.99 19 23.5C19 21.01 21.01 19 23.5 19C25.99 19 28 21.01 28 23.5C28 25.99 25.99 28 23.5 28Z" fill="white"/>
<rect x="0.5" y="0.5" width="51" height="51" rx="25.5" stroke="#DACBFF"/>
</svg>
