<svg width="68" height="16" viewBox="0 0 68 16" fill="none" xmlns="http://www.w3.org/2000/svg">
<path d="M12.23 15H10.11V4.29L3.02 15H0.9V0.599999H3.02V11.3L10.11 0.599999H12.23V15ZM19.6411 15.3C18.5344 15.3 17.5944 15.0533 16.8211 14.56C16.0478 14.0667 15.4544 13.39 15.0411 12.53C14.6344 11.67 14.4278 10.6933 14.4211 9.6C14.4278 8.48667 14.6411 7.50333 15.0611 6.65C15.4811 5.79 16.0811 5.11667 16.8611 4.63C17.6411 4.14333 18.5778 3.9 19.6711 3.9C20.8511 3.9 21.8578 4.19333 22.6911 4.78C23.5311 5.36667 24.0844 6.17 24.3511 7.19L22.2711 7.79C22.0644 7.18333 21.7244 6.71333 21.2511 6.38C20.7844 6.04 20.2478 5.87 19.6411 5.87C18.9544 5.87 18.3911 6.03333 17.9511 6.36C17.5111 6.68 17.1844 7.12 16.9711 7.68C16.7578 8.24 16.6478 8.88 16.6411 9.6C16.6478 10.7133 16.9011 11.6133 17.4011 12.3C17.9078 12.9867 18.6544 13.33 19.6411 13.33C20.3144 13.33 20.8578 13.1767 21.2711 12.87C21.6911 12.5567 22.0111 12.11 22.2311 11.53L24.3511 12.03C23.9978 13.0833 23.4144 13.8933 22.6011 14.46C21.7878 15.02 20.8011 15.3 19.6411 15.3ZM26.3783 15L26.3883 4.2H28.5083V9.4L32.7483 4.2H35.4083L30.9283 9.6L35.8683 15H33.0283L28.5083 9.8V15H26.3783ZM39.9266 15.3C39.1266 15.3 38.4566 15.1533 37.9166 14.86C37.3766 14.56 36.9666 14.1667 36.6866 13.68C36.4132 13.1867 36.2766 12.6467 36.2766 12.06C36.2766 11.5133 36.3732 11.0333 36.5666 10.62C36.7599 10.2067 37.0466 9.85667 37.4266 9.57C37.8066 9.27667 38.2732 9.04 38.8266 8.86C39.3066 8.72 39.8499 8.59667 40.4566 8.49C41.0632 8.38333 41.6999 8.28333 42.3666 8.19C43.0399 8.09667 43.7066 8.00333 44.3666 7.91L43.6066 8.33C43.6199 7.48333 43.4399 6.85667 43.0666 6.45C42.6999 6.03667 42.0666 5.83 41.1666 5.83C40.5999 5.83 40.0799 5.96333 39.6066 6.23C39.1332 6.49 38.8032 6.92333 38.6166 7.53L36.6666 6.93C36.9332 6.00333 37.4399 5.26667 38.1866 4.72C38.9399 4.17333 39.9399 3.9 41.1866 3.9C42.1532 3.9 42.9932 4.06667 43.7066 4.4C44.4266 4.72667 44.9532 5.24667 45.2866 5.96C45.4599 6.31333 45.5666 6.68667 45.6066 7.08C45.6466 7.47333 45.6666 7.89667 45.6666 8.35V15H43.8166V12.53L44.1766 12.85C43.7299 13.6767 43.1599 14.2933 42.4666 14.7C41.7799 15.1 40.9332 15.3 39.9266 15.3ZM40.2966 13.59C40.8899 13.59 41.3999 13.4867 41.8266 13.28C42.2532 13.0667 42.5966 12.7967 42.8566 12.47C43.1166 12.1433 43.2866 11.8033 43.3666 11.45C43.4799 11.13 43.5432 10.77 43.5566 10.37C43.5766 9.97 43.5866 9.65 43.5866 9.41L44.2666 9.66C43.6066 9.76 43.0066 9.85 42.4666 9.93C41.9266 10.01 41.4366 10.09 40.9966 10.17C40.5632 10.2433 40.1766 10.3333 39.8366 10.44C39.5499 10.54 39.2932 10.66 39.0666 10.8C38.8466 10.94 38.6699 11.11 38.5366 11.31C38.4099 11.51 38.3466 11.7533 38.3466 12.04C38.3466 12.32 38.4166 12.58 38.5566 12.82C38.6966 13.0533 38.9099 13.24 39.1966 13.38C39.4832 13.52 39.8499 13.59 40.2966 13.59ZM51.0533 15V6.08H47.3633V4.2H56.8333V6.08H53.1433V15H51.0533ZM58.722 15V4.2H60.822V7.95H62.952C63.2587 7.95 63.5854 7.95667 63.932 7.97C64.2854 7.98333 64.5887 8.01667 64.842 8.07C65.422 8.19 65.922 8.39 66.342 8.67C66.7687 8.95 67.0987 9.32333 67.332 9.79C67.5654 10.25 67.682 10.8167 67.682 11.49C67.682 12.43 67.4354 13.18 66.942 13.74C66.4554 14.2933 65.7954 14.6667 64.962 14.86C64.6954 14.92 64.3787 14.96 64.012 14.98C63.652 14.9933 63.322 15 63.022 15H58.722ZM60.822 13.32H63.142C63.3087 13.32 63.4987 13.3133 63.712 13.3C63.9254 13.2867 64.122 13.2567 64.302 13.21C64.622 13.1167 64.9087 12.9267 65.162 12.64C65.4154 12.3533 65.542 11.97 65.542 11.49C65.542 10.9967 65.4154 10.6033 65.162 10.31C64.9154 10.0167 64.602 9.82667 64.222 9.74C64.042 9.69333 63.8587 9.66333 63.672 9.65C63.4854 9.63667 63.3087 9.63 63.142 9.63H60.822V13.32Z" fill="white"/>
</svg>
